HIERARCHY
ROOT Hips
{
	OFFSET -3.958830 18.904000 13.208200
	CHANNELS 6 Xposition Yposition Zposition Zrotation Yrotation Xrotation 
	JOINT LHipJoint
	{
		OFFSET 0.000000 0.000000 0.000000
		CHANNELS 3 Zrotation Yrotation Xrotation
		JOINT LeftUpLeg
		{
			OFFSET 1.800000 -1.400000 0.085000
			CHANNELS 3 Zrotation Yrotation Xrotation
			JOINT LeftLeg
			{
				OFFSET 2.215000 -6.000000 0.000000
				CHANNELS 3 Zrotation Yrotation Xrotation
				JOINT LeftFoot
				{
					OFFSET 2.500000 -6.900000 0.000000
					CHANNELS 3 Zrotation Yrotation Xrotation
					JOINT LeftToeBase
					{
						OFFSET 0.200000 -0.500000 1.950000
						CHANNELS 3 Zrotation Yrotation Xrotation
						End Site
						{
							OFFSET 0.000000 0.000000 0.000000
						}
					}
				}
			}
		}
	}
	JOINT RHipJoint
	{
		OFFSET 0.000000 0.000000 0.000000
		CHANNELS 3 Zrotation Yrotation Xrotation
		JOINT RightUpLeg
		{
			OFFSET -1.800000 -1.400000 0.085000
			CHANNELS 3 Zrotation Yrotation Xrotation
			JOINT RightLeg
			{
				OFFSET -2.215000 -6.000000 0.000000
				CHANNELS 3 Zrotation Yrotation Xrotation
				JOINT RightFoot
				{
					OFFSET -2.500000 -6.900000 0.000000
					CHANNELS 3 Zrotation Yrotation Xrotation
					JOINT RightToeBase
					{
						OFFSET -0.200000 -0.500000 1.950000
						CHANNELS 3 Zrotation Yrotation Xrotation
						End Site
						{
							OFFSET 0.000000 0.000000 0.000000
						}
					}
				}
			}
		}
	}
	JOINT LowerBack
	{
		OFFSET 0.000000 0.000000 0.000000
		CHANNELS 3 Zrotation Yrotation Xrotation
		JOINT Spine
		{
			OFFSET -0.087000 1.940000 -0.288900
			CHANNELS 3 Zrotation Yrotation Xrotation
			JOINT Spine1
			{
				OFFSET 0.000000 1.950000 0.060000
				CHANNELS 3 Zrotation Yrotation Xrotation
				JOINT Neck
				{
					OFFSET 0.000000 0.000000 0.000000
					CHANNELS 3 Zrotation Yrotation Xrotation
					JOINT Neck1
					{
						OFFSET 0.000000 1.600000 0.340000
						CHANNELS 3 Zrotation Yrotation Xrotation
						JOINT Head
						{
							OFFSET 0.000000 1.667000 -0.240000
							CHANNELS 3 Zrotation Yrotation Xrotation
							End Site
							{
								OFFSET 0.000000 0.000000 0.000000
							}
						}
					}
				}
				JOINT LeftShoulder
				{
					OFFSET 0.000000 0.000000 0.000000
					CHANNELS 3 Zrotation Yrotation Xrotation
					JOINT LeftArm
					{
						OFFSET 2.700000 1.550000 -0.730000
						CHANNELS 3 Zrotation Yrotation Xrotation
						JOINT LeftForeArm
						{
							OFFSET 5.450000 0.000000 0.000000
							CHANNELS 3 Zrotation Yrotation Xrotation
							JOINT LeftHand
							{
								OFFSET 3.450000 0.000000 0.000000
								CHANNELS 3 Zrotation Yrotation Xrotation
								JOINT LeftHandIndex1
								{
									OFFSET 0.750000 0.000000 0.000000
									CHANNELS 3 Zrotation Yrotation Xrotation
									End Site
									{
										OFFSET 0.000000 0.000000 0.000000
									}
								}
							}
						}
					}
				}
				JOINT RightShoulder
				{
					OFFSET 0.000000 0.000000 0.000000
					CHANNELS 3 Zrotation Yrotation Xrotation
					JOINT RightArm
					{
						OFFSET -2.700000 1.550000 -0.730000
						CHANNELS 3 Zrotation Yrotation Xrotation
						JOINT RightForeArm
						{
							OFFSET -5.450000 0.000000 0.000000
							CHANNELS 3 Zrotation Yrotation Xrotation
							JOINT RightHand
							{
								OFFSET -3.450000 0.000000 0.000000
								CHANNELS 3 Zrotation Yrotation Xrotation
								JOINT RightHandIndex1
								{
									OFFSET -0.750000 0.000000 0.000000
									CHANNELS 3 Zrotation Yrotation Xrotation
									End Site
									{
										OFFSET 0.000000 0.000000 0.000000
									}
								}
							}
						}
					}
				}
			}
		}
	}
}
MOTION
Frames: 6
Frame Time: 0.016667
0.106680 16.832200 -3.618130 -11.579641 -28.243579 -1.935384 -15.844601 12.560928 5.264162 21.974562 6.332189 -39.529290 -12.707676 20.756000 49.137145 1.494621 10.767354 0.512195 1.300710 1.221030 1.202180 17.882810 -8.944981 3.094456 8.711510 7.013266 -9.462762 6.189481 -4.993710 26.856622 -1.200416 -3.538008 2.773101 0.214670 -0.857360 0.579180 -1.906669 -3.620995 -9.711808 10.263097 1.930812 53.566136 3.742470 8.596693 19.257730 10.127927 -12.290748 -23.481138 -25.928827 8.994603 51.040151 -6.197530 0.880980 -43.149690 -14.354741 -33.057237 15.859091 -61.872117 -1.080870 -22.241988 -1.961436 -48.734920 -7.775990 -2.155512 3.780831 0.744950 -0.755470 1.127970 0.236660 -1.826246 55.985525 10.568437 24.818599 50.311931 -18.223206 11.404920 82.065812 -1.908202 2.813877 -1.527338 0.721800 -0.272740 -0.810270 0.048960 
0.103800 16.770470 -3.624640 -12.247565 -28.864827 -1.731531 -15.957538 12.344278 5.435784 23.636030 7.181618 -40.443172 -13.134124 22.044920 50.610145 1.570293 11.229642 0.364902 1.332340 1.251180 1.227820 17.889508 -8.588659 3.059709 9.403275 8.032844 -10.029354 6.464815 -5.179699 29.097515 -1.266895 -3.762874 2.679078 0.238790 -0.880760 0.579520 -1.868345 -3.845748 -9.681894 10.386107 1.603922 53.340774 3.966461 8.161064 19.671560 10.123403 -12.377094 -22.894620 -26.701825 9.781855 50.933958 -6.424760 0.791630 -43.813510 -15.530739 -34.832213 16.147380 -62.178810 -2.457371 -18.854178 1.691919 -39.079294 -6.889165 -2.171252 3.684953 0.762810 -0.775090 1.146620 0.236140 -0.799363 57.843458 9.896906 24.285819 48.285070 -16.579149 2.556676 86.701979 -7.532639 2.862167 -1.145412 0.725210 -0.265290 -0.818340 0.043920 
0.098500 16.719750 -3.632950 -12.652733 -29.318222 -1.642915 -16.057377 12.185668 5.579826 24.899742 7.854449 -41.202552 -13.410512 23.097001 51.874238 1.630095 11.583945 0.251172 1.364940 1.283670 1.263500 17.886174 -8.273241 3.041950 9.831196 8.954395 -10.577299 6.826871 -5.379613 30.969894 -1.327962 -3.964735 2.593273 0.261250 -0.910280 0.577180 -1.811289 -4.094731 -9.705421 10.139484 1.543300 53.357492 4.372431 7.816778 19.802052 9.998333 -12.167087 -22.434928 -26.940304 10.297737 51.164243 -6.737950 0.757350 -44.410010 -16.555481 -36.212190 16.215396 -62.198020 -3.791629 -15.195107 3.173114 -30.578631 -5.444890 -2.209958 3.614607 0.778640 -0.794360 1.167000 0.230170 0.276951 59.074457 9.473264 24.047121 46.848745 -16.246794 160.321375 89.978258 157.242983 2.904374 -0.297818 0.730630 -0.261580 -0.830890 0.034920 
0.090670 16.679240 -3.641330 -12.785650 -29.782071 -1.757148 -16.148672 12.178352 5.702463 25.753151 8.369260 -41.722972 -13.529021 23.879029 52.863933 1.683623 11.839959 0.167093 1.384340 1.301760 1.293890 17.854071 -7.962400 3.040372 10.060268 9.722399 -10.945764 7.133379 -5.546835 32.510406 -1.376103 -4.127208 2.521194 0.271240 -0.941150 0.577670 -1.680636 -4.608634 -9.796629 8.982570 1.641097 53.966813 4.862946 7.336562 19.983278 9.867959 -11.973524 -23.047562 -27.744239 10.937587 51.427502 -6.960760 0.746520 -44.775640 -17.231176 -36.118687 15.292514 -62.002901 -5.224407 -12.043700 2.974171 -23.721822 -4.062086 -2.234308 3.605042 0.789140 -0.813460 1.187020 0.218620 1.354699 58.100703 10.359802 22.474652 49.422731 -15.784432 -73.092443 89.327705 -59.835217 3.255540 2.813218 0.739370 -0.268300 -0.840190 0.027100 
0.080450 16.648830 -3.650060 -12.622580 -30.429232 -2.170915 -16.275873 12.514700 5.913576 26.272796 8.763654 -42.115414 -13.550382 24.446470 53.601591 1.695964 12.024728 0.102552 1.382080 1.288720 1.311450 17.719810 -7.589327 3.107524 10.152305 10.331277 -11.006341 7.377461 -5.656998 33.631991 -1.398649 -4.217380 2.482589 0.271690 -0.953180 0.571110 -1.208300 -5.885371 -10.257109 2.196699 -0.671294 55.726097 -1.167864 1.173816 27.843784 13.658910 -8.371421 -30.656890 -31.480925 12.906360 45.970876 -7.359370 0.841560 -45.143220 -10.891251 -22.361522 4.130671 -60.918616 -9.591001 -9.880018 1.807809 -19.260424 -3.088145 -2.320961 3.631222 0.812510 -0.820840 1.191150 0.202860 -13.679893 35.990040 48.494436 -87.690115 48.178016 -139.582112 84.920127 77.918340 71.008486 10.478810 8.232152 0.723310 -0.258640 -0.830830 0.007510 
0.070420 16.630310 -3.657540 -12.656785 -30.208927 -2.391813 -16.237117 12.287772 5.925289 26.548986 8.913045 -42.251539 -13.362502 24.640512 54.222143 1.704964 12.105633 0.077713 1.375080 1.279830 1.317950 17.756142 -7.741798 3.146103 10.234929 10.653169 -11.162743 7.489208 -5.764774 34.202774 -1.424788 -4.322036 2.447771 0.266490 -0.961000 0.569280 -1.330939 -5.141223 -10.291791 6.718821 2.069835 56.360907 5.313058 7.558923 18.799342 10.309178 -11.417393 -24.400619 -27.971698 11.556701 52.877114 -7.970180 0.959940 -45.320610 -18.253536 -35.898080 13.841361 -61.250284 -6.542184 -8.827584 0.406172 -15.907734 -2.501838 -2.247702 3.614387 0.823610 -0.822250 1.196300 0.192490 1.807952 57.392564 12.477164 21.259365 50.531020 -2.964117 -104.668988 72.572517 -134.965735 3.639185 -2.769848 0.717500 -0.254510 -0.823960 -0.002130 
